<mxfile host="app.diagrams.net" modified="2022-06-01T13:24:09.520Z" agent="5.0 (Windows NT 10.0; Win64; x64) AppleWebKit/537.36 (KHTML, like Gecko) Chrome/102.0.5005.61 Safari/537.36" etag="4tAcXTLS-4uXndnhfoey" version="18.2.0" type="github">
  <diagram id="YNodegA6RfsH5gmOpija" name="第 1 页">
    <mxGraphModel dx="1422" dy="762" grid="1" gridSize="10" guides="1" tooltips="1" connect="1" arrows="1" fold="1" page="1" pageScale="1" pageWidth="827" pageHeight="1169" math="0" shadow="0">
      <root>
        <mxCell id="0" />
        <mxCell id="1" parent="0" />
        <mxCell id="iVBpMrfc3L2eKMxo2YTI-3" style="edgeStyle=orthogonalEdgeStyle;rounded=0;orthogonalLoop=1;jettySize=auto;html=1;exitX=1;exitY=0.5;exitDx=0;exitDy=0;exitPerimeter=0;" edge="1" parent="1" source="iVBpMrfc3L2eKMxo2YTI-1" target="iVBpMrfc3L2eKMxo2YTI-2">
          <mxGeometry relative="1" as="geometry" />
        </mxCell>
        <mxCell id="iVBpMrfc3L2eKMxo2YTI-4" value="sub：&lt;span style=&quot;color: rgb(33, 37, 41); font-size: 16px; text-align: left;&quot;&gt;v1/devices/me/attributes&lt;/span&gt;" style="edgeLabel;html=1;align=center;verticalAlign=middle;resizable=0;points=[];" vertex="1" connectable="0" parent="iVBpMrfc3L2eKMxo2YTI-3">
          <mxGeometry x="-0.1776" relative="1" as="geometry">
            <mxPoint x="21" as="offset" />
          </mxGeometry>
        </mxCell>
        <mxCell id="iVBpMrfc3L2eKMxo2YTI-1" value="设备" style="strokeWidth=2;html=1;shape=mxgraph.flowchart.start_2;whiteSpace=wrap;" vertex="1" parent="1">
          <mxGeometry x="50" y="210" width="100" height="100" as="geometry" />
        </mxCell>
        <mxCell id="iVBpMrfc3L2eKMxo2YTI-2" value="transport Mqtt" style="rounded=1;whiteSpace=wrap;html=1;absoluteArcSize=1;arcSize=14;strokeWidth=2;" vertex="1" parent="1">
          <mxGeometry x="440" y="210" width="100" height="100" as="geometry" />
        </mxCell>
      </root>
    </mxGraphModel>
  </diagram>
</mxfile>
